# xmcd
# 
# Track frame offsets:
#     150
#     17100
#     34575
#     50925
#     65400
#     82725
#     99975
#     115800
#     133875
#     147825
#     159750
#     175200
# 
# Disc length: 2552
# 
# Revision: 0
# Processed by: cddbd v1.5.2PL0 Copyright (c) Steve Scherf et al.
# Submitted via: fre:ac v1.1beta1pre4
# 
DISCID=9809f60c
DTITLE=Etienne Grandjean and Soïg Sibéril - La Tempête
DYEAR=2016
DGENRE=Celtic
TTITLE0=Chauffe Marzelle
TTITLE1=La misère
TTITLE2=Madonna's valse
TTITLE3=Le halage
TTITLE4=Les adieux de «La Tempête»
TTITLE5=Jigophonie
TTITLE6=La maison de Bot
TTITLE7=Chez Pedro
TTITLE8=La brouette à Satan
TTITLE9=Sentier des Ormeaux
TTITLE10=Rossignolet du bois
TTITLE11=Le repaire des 3 Jean
EXTD=
EXTT0=
EXTT1=
EXTT2=
EXTT3=
EXTT4=
EXTT5=
EXTT6=
EXTT7=
EXTT8=
EXTT9=
EXTT10=
EXTT11=
PLAYORDER=
